<svg viewBox="0 0 24 24"><path fill="#F57F17" d="M12.314 10.903l-8.978 8.351 6.75-12.846 2.228 4.495z"/><path fill="#FFA000" d="M10.086 6.408l-6.75 12.846L6.344.477c.113-.582.443-.641.741-.126l3.001 6.057z"/><path fill="#D56F14" d="M6.711 12.831l-3.375 6.423 3.375-3.139v-3.284z"/><path fill="#DE8B00" d="M6.689 0H6.67c-.145.007-.266.169-.326.477L3.336 19.254l3.375-6.423V.002A.15.15 0 006.689 0z"/><path fill="#FFA000" d="M14.714 8.669l-2.4 2.235-2.229-4.496 1.152-2.585c.291-.516.766-.523 1.058 0l2.419 4.846z"/><path fill="#DE8B00" d="M11.767 3.433c-.192 0-.385.131-.531.389l-1.152 2.585L12 10.271V3.499a.458.458 0 00-.233-.066z"/><path fill="#FFCA28" d="M17.346 5.251c.43-.41.873-.272.984.311l2.334 13.58-7.741 4.648c-.272.15-.992.21-.992.21s-.654-.08-.905-.218l-7.689-4.528L17.346 5.251z"/><path fill="#DEB023" d="M17.832 5.015c-.151 0-.32.077-.487.236L3.336 19.254l7.689 4.528c.251.139.906.218.906.218s.721-.06.992-.211l1.595-.958L18.021 5.06a.405.405 0 00-.189-.045z"/></svg>