<svg data-name="Layer 1" viewBox="0 0 48 48"><path d="M34.61 21.33a2.06 2.06 0 00-.76-.31 4.45 4.45 0 00-.93-.09h-.21c0 .09-.06.33-.13.72l-.31 1.72c0 .24-.09.56-.16 1s-.11.63-.11.79a5.87 5.87 0 001-.09 3.73 3.73 0 00.85-.26 2.92 2.92 0 00.94-.73 2.52 2.52 0 00.47-1.14 1.75 1.75 0 00-.07-1 1.35 1.35 0 00-.58-.61zm-17.75 0a2.22 2.22 0 00-.76-.33 4.59 4.59 0 00-.93-.09H15c0 .09-.06.33-.13.72s-.17 1-.3 1.72c0 .24-.1.56-.17 1s-.11.68-.14.83a5.69 5.69 0 001-.09 3.73 3.73 0 00.85-.26 2.92 2.92 0 00.94-.73 2.42 2.42 0 00.48-1.14 1.75 1.75 0 00-.08-1 1.39 1.39 0 00-.59-.63z"/><path d="M16.86 21.33a2.22 2.22 0 00-.76-.33 4.59 4.59 0 00-.93-.09H15c0 .09-.06.33-.13.72s-.17 1-.3 1.72c0 .24-.1.56-.17 1s-.11.68-.14.83a5.69 5.69 0 001-.09 3.73 3.73 0 00.85-.26 2.92 2.92 0 00.94-.73 2.42 2.42 0 00.48-1.14 1.75 1.75 0 00-.08-1 1.39 1.39 0 00-.59-.63zm17.75 0a2.06 2.06 0 00-.76-.31 4.45 4.45 0 00-.93-.09h-.21c0 .09-.06.33-.13.72l-.31 1.72c0 .24-.09.56-.16 1s-.11.63-.11.79a5.87 5.87 0 001-.09 3.73 3.73 0 00.85-.26 2.92 2.92 0 00.94-.73 2.52 2.52 0 00.47-1.14 1.75 1.75 0 00-.07-1 1.35 1.35 0 00-.58-.61z"/><path d="M24 4.75A18.36 18.36 0 1042.36 23.1 18.36 18.36 0 0024 4.75zm-4.31 18.06a3.85 3.85 0 01-.82 1.87 5 5 0 01-1.57 1.22 6.34 6.34 0 01-1.61.53 8.23 8.23 0 01-1.64.17l-.55 3.29h-2.19c0-.23.15-.9.35-2s.42-2.34.65-3.68c.11-.65.24-1.4.38-2.26s.3-1.75.45-2.65h1.18a15.56 15.56 0 012.28.13 5.34 5.34 0 011.66.51 2.68 2.68 0 011.23 1.19 2.76 2.76 0 01.2 1.68zm8.82-1.41c-.1.58-.19 1.06-.26 1.44l-.18 1c-.07.44-.16 1-.25 1.55s-.17 1-.21 1.27h-2.19c0-.2.11-.65.25-1.38s.22-1.21.26-1.47.09-.51.14-.82.09-.58.13-.8a1.49 1.49 0 00-.07-1 .73.73 0 00-.69-.29 2.64 2.64 0 00-.85.18 7.36 7.36 0 00-1 .44l-.86 5.11h-2.2c.06-.34.18-1 .37-2.07s.39-2.18.6-3.42c.11-.65.24-1.4.38-2.24s.3-1.77.47-2.76h2.19l-.7 3.86a10.2 10.2 0 011.53-.62 4.94 4.94 0 011.37-.24 1.73 1.73 0 011.46.61 2 2 0 01.31 1.65zm8.11 3.28a4.84 4.84 0 01-1.56 1.22 6.42 6.42 0 01-1.62.53 8.07 8.07 0 01-1.63.17l-.55 3.29h-2.2l.36-2c.2-1.11.42-2.34.65-3.68.11-.65.24-1.4.38-2.26s.29-1.75.44-2.65h1.19a15.75 15.75 0 012.28.13 5.42 5.42 0 011.66.51 2.61 2.61 0 011.22 1.19 2.69 2.69 0 01.21 1.7 3.86 3.86 0 01-.83 1.85z"/><path d="M17.47 22.94a2.42 2.42 0 01-.47 1.14 2.92 2.92 0 01-.94.73 3.73 3.73 0 01-.85.26 5.69 5.69 0 01-1 .09c0-.15.08-.43.14-.83s.12-.72.17-1c.13-.76.23-1.34.3-1.72s.12-.63.13-.72h.22a4.59 4.59 0 01.93.09 2.22 2.22 0 01.76.31 1.39 1.39 0 01.53.66 1.75 1.75 0 01.08.99zm17.75 0a2.52 2.52 0 01-.47 1.14 2.92 2.92 0 01-.94.73 3.73 3.73 0 01-.85.26 5.87 5.87 0 01-1 .09c0-.15.07-.43.14-.83s.12-.72.16-1c.13-.76.23-1.34.31-1.72s.11-.63.13-.72h.21a4.45 4.45 0 01.93.09 2.06 2.06 0 01.76.31 1.35 1.35 0 01.54.66 1.75 1.75 0 01.08.99z"/></svg>